# xmcd
#
# Track frame offsets:
#	150
#	15341
#	29969
#	48736
#	60338
#	75175
#	87776
#	97604
#	110299
#	128243
#	141777
#	154420
#	170771
#
# Disc length: 2458 seconds
#
# Revision: 1
# Processed by: cddbd v1.5.2PL0 Copyright (c) Steve Scherf et al.
# Submitted via: audiograbber 1.83.01
#
DISCID=9c09980d
DTITLE=Die Edlseer - Foahr´n ma über´n See
DYEAR=2015
DGENRE=
TTITLE0=Am 8ten Tag
TTITLE1=Foahr´n ma über´n See
TTITLE2=Wenn die Wunderkerzen wieder leuchten
TTITLE3=So wie´s is soll´s bleib´n
TTITLE4=Böse Buben stehn auf schöne Engel
TTITLE5=La cerveza mas fina
TTITLE6=Steirische Fusionspolka
TTITLE7=Hinter die Hollerbisch
TTITLE8=Und heit da schaust
TTITLE9=sie liebt mich, sie liebt mich nicht
TTITLE10=Schürzenjaga
TTITLE11=Muatta
TTITLE12=Voi schee
EXTD=
EXTT0=
EXTT1=
EXTT2=
EXTT3=
EXTT4=
EXTT5=
EXTT6=
EXTT7=
EXTT8=
EXTT9=
EXTT10=
EXTT11=
EXTT12=
PLAYORDER=
